# xmcd CD database file
#
# Track frame offsets:
#	150
#	11512
#	36275
#	52428
#	80305
#	100631
#	123788
#	147358
#	161440
#	188103
#	212788
#	242225
#	257963
#	287462
#
# Disc length: 4105 seconds
#
# Revision: 0
# Processed by: cddbd v1.5.1PL2 Copyright (c) Steve Scherf et al.
# Submitted via: CDex 1.51
#
DISCID=c310070e
DTITLE=JAFROSAX - JAFROSAX 2
DYEAR=2005
DGENRE=Jazz
TTITLE0=Free No.2
TTITLE1=Easy That Would Be
TTITLE2=Float In Afternoon
TTITLE3=Find A Way
TTITLE4=You Walk Your Way
TTITLE5=Chain Of Joy
TTITLE6=Swimming In Extacy
TTITLE7=Sepia Rose
TTITLE8=Free Floating
TTITLE9=I Remember When
TTITLE10=SAXTATIC
TTITLE11=夕陽に染まる校庭で
TTITLE12=FUTURE FREEDOM
TTITLE13=Sweet music
EXTD=YEAR: 2005
EXTT0=
EXTT1=
EXTT2=
EXTT3=
EXTT4=
EXTT5=
EXTT6=
EXTT7=
EXTT8=
EXTT9=
EXTT10=
EXTT11=
EXTT12=
EXTT13=
PLAYORDER=
